<?xml version="1.0" encoding="UTF-8" standalone="no"?>
<!-- Created with Inkscape (http://www.inkscape.org/) -->

<svg
   xmlns:dc="http://purl.org/dc/elements/1.1/"
   xmlns:cc="http://creativecommons.org/ns#"
   xmlns:rdf="http://www.w3.org/1999/02/22-rdf-syntax-ns#"
   xmlns:svg="http://www.w3.org/2000/svg"
   xmlns="http://www.w3.org/2000/svg"
   xmlns:xlink="http://www.w3.org/1999/xlink"
   xmlns:sodipodi="http://sodipodi.sourceforge.net/DTD/sodipodi-0.dtd"
   xmlns:inkscape="http://www.inkscape.org/namespaces/inkscape"
   id="svg2"
   sodipodi:version="0.32"
   inkscape:version="0.92.4 (5da689c313, 2019-01-14)"
   width="200"
   height="200"
   version="1.0"
   sodipodi:docname="Lizard.svg"
   inkscape:output_extension="org.inkscape.output.svg.inkscape">
  <metadata
     id="metadata7">
    <rdf:RDF>
      <cc:Work
         rdf:about="">
        <dc:format>image/svg+xml</dc:format>
        <dc:type
           rdf:resource="http://purl.org/dc/dcmitype/StillImage" />
        <dc:title></dc:title>
        <dc:date>2009-12-05</dc:date>
        <dc:creator>
          <cc:Agent>
            <dc:title>nojhan</dc:title>
          </cc:Agent>
        </dc:creator>
        <cc:license
           rdf:resource="http://creativecommons.org/licenses/by-sa/4.0/" />
        <dc:source>http://commons.wikimedia.org/wiki/Category:Rock_Paper_Scissors</dc:source>
        <dc:contributor>
          <cc:Agent>
            <dc:title>Concept by Sam Kass. Photos on Wikimedia Commons by Fluff, modified by Sertion.</dc:title>
          </cc:Agent>
        </dc:contributor>
        <dc:rights>
          <cc:Agent>
            <dc:title>nojhan</dc:title>
          </cc:Agent>
        </dc:rights>
        <dc:publisher>
          <cc:Agent>
            <dc:title>Wikimedia Commons</dc:title>
          </cc:Agent>
        </dc:publisher>
        <dc:identifier>http://commons.wikimedia.org/wiki/File:pierre_ciseaux_feuille_lézard_spock.svg</dc:identifier>
        <dc:subject>
          <rdf:Bag>
            <rdf:li>pierre</rdf:li>
            <rdf:li>feuille</rdf:li>
            <rdf:li>ciseaux</rdf:li>
            <rdf:li>lézard</rdf:li>
            <rdf:li>spock</rdf:li>
            <rdf:li>lizard</rdf:li>
            <rdf:li>rock</rdf:li>
            <rdf:li>cissors</rdf:li>
            <rdf:li>paper</rdf:li>
            <rdf:li>morra</rdf:li>
            <rdf:li>rochambeau</rdf:li>
            <rdf:li />
          </rdf:Bag>
        </dc:subject>
        <dc:description>Un diagrame de résolution du jeu « Pierre, ciseaux, feuille, lézard, Spock ».

A resolution diagram of the game &quot;Rock, Paper, Scissors, Lizard, Spock&quot;.</dc:description>
      </cc:Work>
      <cc:License
         rdf:about="http://creativecommons.org/licenses/by-sa/4.0/">
        <cc:permits
           rdf:resource="http://creativecommons.org/ns#Reproduction" />
        <cc:permits
           rdf:resource="http://creativecommons.org/ns#Distribution" />
        <cc:requires
           rdf:resource="http://creativecommons.org/ns#Notice" />
        <cc:requires
           rdf:resource="http://creativecommons.org/ns#Attribution" />
        <cc:permits
           rdf:resource="http://creativecommons.org/ns#DerivativeWorks" />
        <cc:requires
           rdf:resource="http://creativecommons.org/ns#ShareAlike" />
      </cc:License>
    </rdf:RDF>
  </metadata>
  <defs
     id="defs5">
    <marker
       inkscape:stockid="Arrow1Lstart"
       orient="auto"
       refY="0"
       refX="0"
       id="Arrow1Lstart"
       style="overflow:visible">
      <path
         id="path3525"
         d="M 0,0 5,-5 -12.5,0 5,5 Z"
         style="fill-rule:evenodd;stroke:#000000;stroke-width:1.00000003pt;marker-start:none"
         transform="matrix(0.8,0,0,0.8,10,0)"
         inkscape:connector-curvature="0" />
    </marker>
    <marker
       inkscape:stockid="Arrow1Lend"
       orient="auto"
       refY="0"
       refX="0"
       id="Arrow1Lend"
       style="overflow:visible">
      <path
         id="path3528"
         d="M 0,0 5,-5 -12.5,0 5,5 Z"
         style="fill-rule:evenodd;stroke:#000000;stroke-width:1.00000003pt;marker-start:none"
         transform="matrix(-0.8,0,0,-0.8,-10,0)"
         inkscape:connector-curvature="0" />
    </marker>
    <inkscape:perspective
       sodipodi:type="inkscape:persp3d"
       inkscape:vp_x="0 : 526.18109 : 1"
       inkscape:vp_y="0 : 1000 : 0"
       inkscape:vp_z="744.09448 : 526.18109 : 1"
       inkscape:persp3d-origin="372.04724 : 350.78739 : 1"
       id="perspective9" />
    <inkscape:perspective
       id="perspective2413"
       inkscape:persp3d-origin="372.04724 : 350.78739 : 1"
       inkscape:vp_z="744.09448 : 526.18109 : 1"
       inkscape:vp_y="0 : 1000 : 0"
       inkscape:vp_x="0 : 526.18109 : 1"
       sodipodi:type="inkscape:persp3d" />
    <inkscape:perspective
       id="perspective2426"
       inkscape:persp3d-origin="372.04724 : 350.78739 : 1"
       inkscape:vp_z="744.09448 : 526.18109 : 1"
       inkscape:vp_y="0 : 1000 : 0"
       inkscape:vp_x="0 : 526.18109 : 1"
       sodipodi:type="inkscape:persp3d" />
    <inkscape:perspective
       id="perspective3367"
       inkscape:persp3d-origin="372.04724 : 350.78739 : 1"
       inkscape:vp_z="744.09448 : 526.18109 : 1"
       inkscape:vp_y="0 : 1000 : 0"
       inkscape:vp_x="0 : 526.18109 : 1"
       sodipodi:type="inkscape:persp3d" />
    <inkscape:perspective
       id="perspective3397"
       inkscape:persp3d-origin="372.04724 : 350.78739 : 1"
       inkscape:vp_z="744.09448 : 526.18109 : 1"
       inkscape:vp_y="0 : 1000 : 0"
       inkscape:vp_x="0 : 526.18109 : 1"
       sodipodi:type="inkscape:persp3d" />
    <clipPath
       clipPathUnits="userSpaceOnUse"
       id="clipPath3428">
      <circle
         style="opacity:1;fill:none;fill-opacity:1;stroke:#000000;stroke-width:11.44029999;stroke-linecap:round;stroke-linejoin:round;stroke-miterlimit:4;stroke-dasharray:none;stroke-opacity:1"
         id="path3430"
         transform="matrix(0.874101,0,0,0.874101,245.087,124.283)"
         cx="-126.15619"
         cy="-211.35745"
         r="343.83746" />
    </clipPath>
    <clipPath
       clipPathUnits="userSpaceOnUse"
       id="clipPath3435">
      <use
         x="0"
         y="0"
         xlink:href="#path3414"
         id="use3437"
         transform="matrix(0.91113,0,0,0.91113,835.686,71.2583)"
         width="600"
         height="600"
         style="fill:none" />
    </clipPath>
    <clipPath
       clipPathUnits="userSpaceOnUse"
       id="clipPath3441">
      <use
         x="0"
         y="0"
         xlink:href="#path3414"
         id="use3443"
         transform="translate(1056.25,534.309)"
         width="600"
         height="600" />
    </clipPath>
    <clipPath
       clipPathUnits="userSpaceOnUse"
       id="clipPath3447">
      <use
         x="0"
         y="0"
         xlink:href="#path3414"
         id="use3449"
         transform="translate(450.204,534.309)"
         width="600"
         height="600" />
    </clipPath>
    <clipPath
       clipPathUnits="userSpaceOnUse"
       id="clipPath3453">
      <use
         x="0"
         y="0"
         xlink:href="#path3414"
         id="use3455"
         transform="translate(-168.208,635.728)"
         width="600"
         height="600" />
    </clipPath>
  </defs>
  <sodipodi:namedview
     inkscape:window-height="704"
     inkscape:window-width="1328"
     inkscape:pageshadow="2"
     inkscape:pageopacity="0.0"
     guidetolerance="10.0"
     gridtolerance="10.0"
     objecttolerance="10.0"
     borderopacity="1.0"
     bordercolor="#666666"
     pagecolor="#ffffff"
     id="base"
     showgrid="false"
     inkscape:zoom="0.5"
     inkscape:cx="216"
     inkscape:cy="60"
     inkscape:window-x="38"
     inkscape:window-y="27"
     inkscape:current-layer="g12095"
     showguides="true"
     inkscape:guide-bbox="true"
     inkscape:window-maximized="0" />
  <g
     id="g12095"
     transform="rotate(-90,101.30744,103.23279)">
    <g
       transform="matrix(0,0.32687037,-0.32766166,0,13.924263,132.1213)"
       id="g3457">
      <circle
         style="fill:#d7f4d7;fill-opacity:1;stroke:#87de87;stroke-width:11.44029999;stroke-linecap:round;stroke-linejoin:round;stroke-miterlimit:4;stroke-dasharray:none;stroke-opacity:1"
         id="path3414"
         transform="matrix(0.874101,0,0,0.874101,17.5113,-92.1615)"
         cx="-126.15619"
         cy="-211.35745"
         r="343.83746" />
      <g
         id="g3384"
         transform="translate(-227.576,-216.444)"
         clip-path="url(#clipPath3428)">
        <path
           sodipodi:nodetypes="csssccsssssssssssssss"
           id="path3382"
           d="m 150.28284,-156.16982 c -4.52968,0.72367 -27.25416,4.55894 -38.08119,7.64791 -13.295111,3.79313 -30.37236,10.78594 -43.519547,15.06469 -10.892455,3.54496 -26.247547,3.64459 -33.89668,12.17879 -8.577837,9.57036 -6.352239,40.645264 -6.770679,42.320886 l 58.171531,26.59652 c -0.588133,-5.299118 31.281725,-37.449375 35.047785,-42.057263 0,0 25.68026,-1.809188 30.70165,-3.903686 5.0214,-2.094477 38.07971,-12.065047 38.0797,-12.065057 l -0.16513,-0.49595 c -0.30195,-0.9068 28.40668,4.78301 31.72599,4.64156 3.34156,-0.14241 26.59024,0.14437 26.59024,0.14437 13.33576,8.511401 25.91466,8.198342 32.01442,9.278634 32.10325,5.685657 31.77457,-14.407944 29.84817,-18.943994 -1.09826,-2.58607 -35.41553,-18.16314 -50.82074,-25.48111 -3.82651,-1.81769 -7.56006,-4.17773 -11.62542,-5.36714 -3.20765,-0.93848 -8.97824,-1.50255 -12.27481,-2.05113 -5.38411,-0.89596 -17.53093,-4.90794 -22.91237,-5.81972 -7.02136,-1.18961 -16.38146,-2.00682 -23.46085,-2.77819 -4.8492,-0.52839 -13.47094,-4.26804 -18.31839,-3.97449 -3.70621,0.22445 -11.82541,3.70506 -20.33368,5.06437 z"
           style="fill:#ffffff;fill-opacity:1;stroke:#000000;stroke-width:3.52866006;stroke-linecap:round;stroke-linejoin:round;stroke-miterlimit:4;stroke-dasharray:none;stroke-opacity:1"
           inkscape:connector-curvature="0" />
        <path
           sodipodi:nodetypes="csssccsssssssssssssss"
           id="path3380"
           d="m 145.08995,-186.09967 c -5.34536,0.85472 -32.16191,5.38451 -44.9386,9.03285 -15.689226,4.48001 -35.841637,12.73914 -51.356287,17.79271 -12.853898,4.18691 -30.974038,4.30457 -40.0005783,14.38421 -10.1224798,11.30343 -7.4961098,48.005586 -7.98989977,49.984641 L 69.451276,-63.492454 c -0.69404,-6.25872 38.497514,-38.728716 42.941754,-44.171026 0,0 28.72181,-7.63906 34.64743,-10.11285 5.92562,-2.47377 44.93686,-14.24986 44.93685,-14.24988 l -0.19487,-0.58576 c -0.35632,-1.07101 33.52199,5.64916 37.43901,5.48209 3.94329,-0.1682 31.37843,0.17051 31.37843,0.17051 15.7372,10.0527 30.58121,9.68295 37.77938,10.95887 37.8842,6.71526 37.49633,-17.01703 35.22305,-22.37451 -1.29603,-3.05437 -41.79294,-21.45223 -59.97222,-30.0954 -4.51556,-2.14685 -8.92143,-4.93425 -13.71886,-6.33906 -3.78525,-1.10842 -10.59498,-1.77464 -14.48518,-2.42256 -6.35363,-1.05821 -20.68779,-5.79671 -27.03829,-6.87359 -8.28571,-1.40504 -19.33132,-2.37023 -27.68551,-3.2813 -5.72243,-0.62407 -15.8967,-5.04091 -21.61706,-4.6942 -4.3736,0.26509 -13.95485,4.37599 -23.99524,5.98145 z"
           style="fill:#ffffff;fill-opacity:1;stroke:#000000;stroke-width:3.52866006;stroke-linecap:round;stroke-linejoin:round;stroke-miterlimit:4;stroke-dasharray:none;stroke-opacity:1"
           inkscape:connector-curvature="0" />
        <path
           sodipodi:nodetypes="csssccsssssssssssssss"
           id="path3378"
           d="m 164.87915,-204.65205 c -5.34536,0.85472 -32.16191,5.38451 -44.9386,9.03285 -15.68922,4.48001 -36.479394,11.09039 -51.356281,17.79271 -20.27485,9.13421 -66.7416577,14.46681 -67.2107363,27.98929 -1.46470235,42.22407 -7.4961105,83.873526 -7.9899005,85.852576 L 79.345879,-109.25499 c -0.69404,-6.25872 34.787031,-12.75538 39.231271,-18.19769 0,0 42.32689,-6.40224 48.25251,-8.87603 5.92562,-2.47377 44.93686,-14.24986 44.93685,-14.24988 l -0.19487,-0.58576 c -0.35632,-1.07101 33.52199,5.64916 37.43901,5.48209 3.94329,-0.1682 31.37843,0.17051 31.37843,0.17051 15.7372,10.0527 30.58121,9.68295 37.77938,10.95887 37.8842,6.71526 37.49633,-17.01703 35.22305,-22.37451 -1.29603,-3.05437 -41.79294,-21.45223 -59.97222,-30.0954 -4.51556,-2.14685 -8.92143,-4.93425 -13.71886,-6.33906 -3.78525,-1.10842 -10.59498,-1.77464 -14.48518,-2.42256 -6.35363,-1.05821 -20.68779,-5.79671 -27.03829,-6.87359 -8.28571,-1.40504 -19.33132,-2.37023 -27.68551,-3.2813 -5.72243,-0.62407 -15.8967,-5.04091 -21.61706,-4.6942 -4.3736,0.26509 -13.95485,4.37599 -23.99524,5.98145 z"
           style="fill:#ffffff;fill-opacity:1;stroke:#000000;stroke-width:3.52866006;stroke-linecap:round;stroke-linejoin:round;stroke-miterlimit:4;stroke-dasharray:none;stroke-opacity:1"
           inkscape:connector-curvature="0" />
        <path
           sodipodi:nodetypes="csssssccsssssssssssssssssssssssssssss"
           id="path3373"
           d="m 147.90461,-196.20418 c -5.34536,0.85472 -32.16191,5.38451 -44.9386,9.03285 -15.68922,4.48001 -35.84164,12.73914 -51.35629,17.79271 -12.8539,4.18691 -30.97404,4.30457 -40.00058,14.38421 -10.1224801,11.30343 -7.4961101,48.00558 -7.9899001,49.98463 -0.49379,1.97903 -37.4160569,122.032784 -37.4160699,122.032799 l -102.41938,111.953811 95.878684,82.98232 c 0,0 71.858026,-75.05946 83.516476,-82.08018 17.84058,-10.74364 39.33821,-6.32437 63.19075,-24.27761 24.45197,-18.404401 56.22022,-43.982991 62.63965,-47.446321 6.41942,-3.4633 42.54188,-31.17414 42.54191,-31.17414 0,0 35.58286,-24.1697895 42.00228,-26.1488095 6.41941,-1.97902 31.07598,-21.8832805 31.07598,-21.8832905 0,0 7.95571,-26.54001 11.31424,-34.14622 7.56678,-17.13664 27.43073,-35.04639 14.95863,-49.010139 -8.52557,-9.54523 -37.62055,-3.27111 -42.60007,1.13529 -3.83883,3.396995 -24.91885,26.968655 -30.00876,41.990799 -1.38449,4.086139 -3.94188,5.861078 -3.94188,5.86108 0,0 -27.95742,17.04021 -41.50846,18.93949 -12.06146,1.6905 -24.73191,5.68308 -35.7001,0.37902 -18.92458,-9.15165 -59.15307,-42.39454 -60.14067,-51.30017 -0.69404,-6.25872 7.57688,-23.886809 12.02112,-29.329119 0,0 34.90593,-8.87588 40.83155,-11.34967 5.92562,-2.47377 44.93686,-14.24986 44.93685,-14.24988 l -0.19487,-0.58576 c -0.35632,-1.07101 33.52199,5.64916 37.43901,5.48209 3.94329,-0.1682 31.37843,0.17051 31.37843,0.17051 15.7372,10.0527 30.58121,9.68295 37.77938,10.95887 37.8842,6.71525 37.49633,-17.01703 35.22305,-22.37451 -1.29603,-3.05437 -41.79294,-21.45223 -59.97222,-30.0954 -4.51556,-2.14685 -8.92143,-4.93425 -13.71886,-6.33906 -3.78525,-1.10842 -10.59498,-1.77464 -14.48518,-2.42256 -6.35363,-1.05821 -20.68779,-5.79671 -27.03829,-6.87359 -8.28571,-1.40504 -19.33132,-2.37023 -27.68551,-3.2813 -5.72243,-0.62407 -15.8967,-5.04091 -21.61706,-4.6942 -4.3736,0.26509 -13.95485,4.37599 -23.99524,5.98145 z"
           style="fill:#ffffff;fill-opacity:1;stroke:#000000;stroke-width:3.52866006;stroke-linecap:round;stroke-linejoin:round;stroke-miterlimit:4;stroke-dasharray:none;stroke-opacity:1"
           inkscape:connector-curvature="0" />
      </g>
    </g>
  </g>
</svg>
